# Blender v2.80 (sub 75) OBJ File: 'Grafiti_crates.blend'
# www.blender.org
mtllib Grafiti_crates.mtl
o Cube
v 4.000000 8.014915 -3.216133
v 4.000000 1.681231 -3.216133
v -4.000000 8.014915 -3.216133
v -4.000000 1.681231 -3.216133
v 4.000000 8.014915 3.213627
v 4.000000 1.681231 3.213627
v -4.000000 8.014915 3.213626
v -4.000000 1.681231 3.213626
v 3.213873 8.014915 -4.000000
v 3.213873 8.014915 4.000000
v 3.213873 1.681231 4.000000
v 3.213873 1.681231 -4.000000
v 3.213873 8.800118 -3.216133
v 3.213873 0.800118 -3.216133
v 3.213873 8.800118 3.213627
v 3.213873 0.800118 3.213626
v -3.283237 8.014915 4.000000
v -3.283237 1.681231 4.000000
v -3.283237 0.800118 -3.216133
v -3.283237 0.800118 3.213627
v -3.283237 8.014915 -4.000000
v -3.283237 1.681231 -4.000000
v -3.283237 8.800118 -3.216133
v -3.283237 8.800118 3.213626
v -4.668750 0.011786 3.844914
v -4.668750 0.011786 4.763206
v -3.831747 0.011786 -4.578835
v -4.668750 0.011786 -4.578835
v 4.673292 1.040709 -4.578835
v 4.673292 0.011786 -4.578835
v -4.668750 8.436901 4.763206
v -4.668750 9.353827 4.763206
v 4.673292 1.040709 4.763206
v 4.673292 0.011786 4.763206
v -4.668750 1.040709 -4.578835
v -3.831747 9.353827 4.763206
v 4.673292 9.353827 3.844914
v 4.673292 9.353827 4.763206
v 3.755287 0.011786 4.763206
v -4.668750 9.353827 -3.663471
v -4.668750 9.353827 -4.578835
v 3.755287 9.353827 -4.578835
v 4.673292 9.353827 -4.578835
v 4.673292 0.011786 -3.663471
v -3.831747 9.353827 4.763206
v -4.668750 9.353827 4.763206
v 4.673292 9.353827 3.844914
v 4.673292 9.353827 4.763206
v -4.668750 9.353827 -3.663471
v -4.668750 9.353827 -4.578835
v 3.755287 9.353827 -4.578835
v 4.673292 9.353827 -4.578835
v 4.673292 8.436901 -4.578835
v -4.668750 1.040709 4.763206
v 4.673292 8.436901 4.763206
v -4.668750 8.436901 -4.578835
v 3.755287 8.436901 -4.578835
v 4.673292 8.436901 3.844914
v -4.668750 8.436901 -3.663471
v -3.831747 8.436901 4.763206
v -3.831747 1.040709 4.763206
v -4.668750 1.040709 -3.663471
v 4.673292 1.040709 3.844914
v 3.755287 1.040709 -4.578835
v -4.668750 0.011786 -3.663471
v 4.673292 9.353827 -3.663471
v -4.668750 9.353827 -3.663471
v 4.673292 0.011786 -3.663471
v 4.673292 9.353827 -3.663471
v -4.668750 9.353827 -3.663471
v 4.673292 8.436901 -3.663471
v -4.668750 8.436901 -3.663471
v -4.668750 1.040709 -3.663471
v 4.673292 1.040709 -3.663471
v 3.755287 9.353827 -3.663471
v -3.831747 0.011786 -3.663471
v -4.668750 0.011786 -3.663471
v 4.673292 9.353827 -3.663471
v 4.673292 9.353827 -3.663471
v 4.673292 8.436901 -3.663471
v 4.673292 1.040709 -3.663471
v -4.668750 9.353827 3.844914
v 4.673292 0.011786 3.844914
v -4.668750 9.353827 3.844914
v -4.668750 8.436901 3.844914
v -4.668750 1.040709 3.844914
v 3.755287 9.353827 -3.663471
v -3.831747 0.011786 -3.663471
v 3.755287 9.353827 3.844914
v -3.831747 0.011786 3.844914
v 3.755287 0.011786 -4.578835
v 3.755287 9.353827 4.763206
v -3.831747 0.011786 4.763206
v -3.831747 9.353827 -4.578835
v 3.755287 9.353827 4.763206
v -3.831747 9.353827 -4.578835
v -3.831747 8.436901 -4.578835
v 3.755287 8.436901 4.763206
v 3.755287 1.040709 4.763206
v -3.831747 1.040709 -4.578835
v -3.831747 9.353827 -3.663471
v 3.755287 0.011786 -3.663471
v -3.831747 9.353827 -3.663471
v 3.755287 0.011786 -3.663471
v -3.831747 9.353827 3.844914
v 3.755287 0.011786 3.844914
vt 0.402535 0.524574
vt 0.600462 0.524574
vt 0.600462 0.725504
vt 0.402535 0.725504
vt 0.152535 0.524496
vt 0.350462 0.524496
vt 0.350462 0.725426
vt 0.152535 0.725426
vt 0.397399 0.774496
vt 0.600434 0.774496
vt 0.600434 0.975426
vt 0.397399 0.975426
vt 0.397399 0.975426
vt 0.397399 0.774496
vt 0.652535 0.725434
vt 0.850462 0.725434
vt 0.850462 0.725434
vt 0.652535 0.725434
vt 0.350462 0.725426
vt 0.152535 0.725426
vt 0.399566 0.024496
vt 0.399566 0.225426
vt 0.399566 0.225426
vt 0.399566 0.024496
vt 0.652535 0.522399
vt 0.850462 0.522399
vt 0.600434 0.975426
vt 0.600462 0.274566
vt 0.402535 0.274566
vt 0.402535 0.274566
vt 0.600462 0.274566
vt 0.652535 0.522399
vt 0.600462 0.725504
vt 0.402535 0.725504
vt 0.600434 0.774496
vt 0.402535 0.477601
vt 0.600462 0.477601
vt 0.600462 0.477601
vt 0.402535 0.477601
vt 0.602601 0.225426
vt 0.602601 0.225426
vt 0.850462 0.522399
vt 0.152535 0.524496
vt 0.402535 0.524574
vt 0.600462 0.524574
vt 0.602601 0.024496
vt 0.350462 0.524496
vt 0.602601 0.024496
vt 0.875000 0.522399
vt 0.875000 0.500000
vt 0.875000 0.500000
vt 0.437500 0.261199
vt 0.625000 0.477601
vt 0.625000 0.500000
vt 0.600462 0.500000
vt 0.600462 0.725504
vt 0.625000 0.725504
vt 0.625000 0.750000
vt 0.600462 0.750000
vt 0.625000 0.975426
vt 0.625000 1.000000
vt 0.600434 1.000000
vt 0.375000 0.725426
vt 0.375000 0.750000
vt 0.350462 0.750000
vt 0.875000 0.725434
vt 0.875000 0.750000
vt 0.850462 0.750000
vt 0.625000 0.225426
vt 0.625000 0.250000
vt 0.602601 0.250000
vt 0.625000 0.274566
vt 0.625000 0.250000
vt 0.625000 0.250000
vt 0.312500 0.137283
vt 0.625000 0.524574
vt 0.625000 0.500000
vt 0.312500 0.262287
vt 0.375000 0.524496
vt 0.375000 0.500000
vt 0.375000 0.500000
vt 0.187500 0.262248
vt 0.652535 0.750000
vt 0.152535 0.750000
vt 0.402535 0.725504
vt 0.402535 0.750000
vt 0.402535 0.500000
vt 0.375000 0.477601
vt 0.375000 0.500000
vt 0.375000 0.725504
vt 0.375000 0.750000
vt 0.125000 0.725426
vt 0.125000 0.750000
vt 0.625000 0.725434
vt 0.625000 0.750000
vt 0.125000 0.500000
vt 0.152535 0.500000
vt 0.152535 0.524496
vt 0.125000 0.524496
vt 0.375000 0.725504
vt 0.350462 0.500000
vt 0.350462 0.524496
vt 0.375000 0.524496
vt 0.187500 0.262248
vt 0.312500 0.362752
vt 0.625000 0.750000
vt 0.602601 0.000000
vt 0.625000 0.000000
vt 0.625000 0.024496
vt 0.602601 0.024496
vt 0.600434 0.750000
vt 0.625000 0.774496
vt 0.600434 0.774496
vt 0.625000 0.725504
vt 0.187500 0.362713
vt 0.375000 0.524574
vt 0.125000 0.524496
vt 0.156250 0.181376
vt 0.625000 0.024496
vt 0.625000 0.774496
vt 0.375000 0.750000
vt 0.375000 0.024496
vt 0.375000 0.225426
vt 0.397399 0.774496
vt 0.375000 0.024496
vt 0.399566 0.024496
vt 0.397399 0.750000
vt 0.375000 0.000000
vt 0.399566 0.000000
vt 0.625000 0.522399
vt 0.375000 0.250000
vt 0.402535 0.250000
vt 0.375000 0.274566
vt 0.600462 0.250000
vt 0.312500 0.238801
vt 0.399566 0.250000
vt 0.375000 0.250000
vt 0.397399 1.000000
vt 0.437500 0.362717
vt 0.875000 0.750000
vt 0.375000 0.975426
vt 0.375000 1.000000
vt 0.850462 0.500000
vt 0.652535 0.500000
vt 0.625000 0.500000
vt 0.375000 0.774496
vt 0.375000 0.774496
vn -1.0000 0.0000 0.0000
vn 1.0000 0.0000 0.0000
vn 0.0000 -1.0000 0.0000
vn 0.8209 -0.5711 0.0000
vn -0.7303 0.0000 -0.6831
vn 0.6840 0.0000 -0.7295
vn -0.7150 0.6991 0.0000
vn 0.0000 0.0000 -1.0000
vn -0.0000 -0.6251 -0.7806
vn -0.8156 0.0000 0.5786
vn 0.0000 0.6705 -0.7419
vn -0.5560 0.0000 0.8312
vn -0.8243 -0.5661 0.0000
vn 0.0000 -0.4935 0.8697
vn 0.8120 0.0000 0.5836
vn 0.0000 0.7518 -0.6594
vn 0.7259 0.0000 -0.6878
vn 0.0000 0.7660 0.6429
vn 0.6893 0.7245 0.0000
vn 0.0000 -0.8081 -0.5891
vn -0.6917 0.7222 0.0000
vn -0.6864 0.0000 -0.7272
vn 0.0000 1.0000 0.0000
vn 0.0000 -0.8751 0.4839
vn 0.5311 -0.8473 0.0000
vn -0.5336 -0.8457 0.0000
vn 0.0000 0.0000 1.0000
vn 0.0000 0.6284 0.7779
vn 0.5534 0.0000 0.8329
vn 0.7104 0.7038 0.0000
usemtl Material
s off
f 8/1/1 7/2/1 3/3/1 4/4/1
f 2/5/2 1/6/2 5/7/2 6/8/2
f 19/9/3 14/10/3 16/11/3 20/12/3
f 19/9/4 20/12/4 90/13/4 88/14/4
f 12/15/5 9/16/5 57/17/5 64/18/5
f 6/8/6 5/7/6 58/19/6 63/20/6
f 13/21/7 15/22/7 89/23/7 87/24/7
f 22/25/8 21/26/8 9/16/8 12/15/8
f 20/12/9 16/11/9 106/27/9 90/13/9
f 10/28/10 11/29/10 99/30/10 98/31/10
f 22/25/11 12/15/11 64/18/11 100/32/11
f 4/4/12 3/3/12 72/33/12 73/34/12
f 16/11/13 14/10/13 104/35/13 106/27/13
f 14/10/14 19/9/14 88/14/14 104/35/14
f 18/36/15 17/37/15 60/38/15 61/39/15
f 15/22/16 24/40/16 105/41/16 89/23/16
f 21/26/17 22/25/17 100/32/17 97/42/17
f 11/29/18 18/36/18 61/39/18 99/30/18
f 2/5/19 6/8/19 63/20/19 81/43/19
f 9/16/20 21/26/20 97/42/20 57/17/20
f 8/1/21 4/4/21 73/34/21 86/44/21
f 7/2/22 8/1/22 86/44/22 85/45/22
f 13/21/23 23/46/23 24/40/23 15/22/23
f 17/37/24 10/28/24 98/31/24 60/38/24
f 5/7/25 1/6/25 80/47/25 58/19/25
f 3/3/26 7/2/26 85/45/26 72/33/26
f 11/29/27 10/28/27 17/37/27 18/36/27
f 23/46/28 13/21/28 87/24/28 103/48/28
f 1/6/29 2/5/29 81/43/29 80/47/29
f 24/40/30 23/46/30 103/48/30 105/41/30
f 94/49/27 41/50/27 50/51/27 96/52/27
f 60/38/27 36/53/27 32/54/27 31/55/27
f 59/56/1 40/57/1 41/58/1 56/59/1
f 106/27/3 83/60/3 34/61/3 39/62/3
f 58/19/2 37/63/2 38/64/2 55/65/2
f 57/17/8 42/66/8 43/67/8 53/68/8
f 105/41/23 84/69/23 46/70/23 45/71/23
f 92/72/27 38/73/27 48/74/27 95/75/27
f 82/76/27 32/54/27 46/77/27 84/78/27
f 66/79/27 43/80/27 52/81/27 69/82/27
f 64/18/8 57/17/8 53/68/8 29/83/8
f 63/20/2 58/19/2 55/65/2 33/84/2
f 62/85/1 59/56/1 56/59/1 35/86/1
f 61/39/27 60/38/27 31/55/27 54/87/27
f 93/88/27 61/39/27 54/87/27 26/89/27
f 65/90/1 62/85/1 35/86/1 28/91/1
f 83/92/2 63/20/2 33/84/2 34/93/2
f 91/94/8 64/18/8 29/83/8 30/95/8
f 30/96/2 29/97/2 74/98/2 44/99/2
f 77/100/27 73/34/27 62/85/27 65/90/27
f 73/34/27 72/33/27 59/56/27 62/85/27
f 29/97/2 53/101/2 71/102/2 74/98/2
f 78/103/27 66/79/27 69/82/27 79/104/27
f 41/58/27 40/57/27 49/105/27 50/106/27
f 96/107/23 50/108/23 49/109/23 101/110/23
f 53/101/2 43/80/2 66/79/2 71/102/2
f 91/111/3 30/95/3 44/112/3 102/113/3
f 72/33/27 67/114/27 40/57/27 59/56/27
f 85/45/1 82/76/1 67/114/1 72/33/1
f 37/63/27 78/103/27 79/104/27 47/115/27
f 25/116/1 86/44/1 73/34/1 77/100/1
f 44/99/27 74/98/27 81/43/27 68/117/27
f 74/98/27 71/102/27 80/47/27 81/43/27
f 40/57/27 67/114/27 70/118/27 49/105/27
f 101/110/27 49/109/27 70/119/27 103/48/27
f 71/102/27 66/79/27 78/103/27 80/47/27
f 102/113/27 44/112/27 68/120/27 104/35/27
f 26/89/1 54/87/1 86/44/1 25/116/1
f 54/87/1 31/55/1 85/45/1 86/44/1
f 38/64/27 37/63/27 47/115/27 48/121/27
f 31/55/1 32/54/1 82/76/1 85/45/1
f 68/117/2 81/43/2 63/20/2 83/92/2
f 67/114/27 82/76/27 84/78/27 70/118/27
f 103/48/23 70/119/23 84/69/23 105/41/23
f 80/47/2 78/103/2 37/63/2 58/19/2
f 104/35/3 68/120/3 83/60/3 106/27/3
f 79/122/23 87/24/23 89/23/23 47/123/23
f 76/124/27 102/113/27 104/35/27 88/14/27
f 69/125/27 75/126/27 87/24/27 79/122/27
f 27/127/3 91/111/3 102/113/3 76/124/3
f 52/128/23 51/129/23 75/126/23 69/125/23
f 27/130/8 100/32/8 64/18/8 91/94/8
f 34/131/27 33/132/27 99/30/27 39/133/27
f 33/132/27 55/134/27 98/31/27 99/30/27
f 36/53/27 92/72/27 95/75/27 45/135/27
f 47/123/23 89/23/23 95/136/23 48/137/23
f 97/42/8 94/49/8 42/66/8 57/17/8
f 90/13/3 106/27/3 39/62/3 93/138/3
f 55/134/27 38/73/27 92/72/27 98/31/27
f 43/67/27 42/66/27 51/139/27 52/140/27
f 25/141/3 90/13/3 93/138/3 26/142/3
f 56/143/8 41/50/8 94/49/8 97/42/8
f 32/54/27 36/53/27 45/135/27 46/77/27
f 35/144/8 56/143/8 97/42/8 100/32/8
f 28/145/8 35/144/8 100/32/8 27/130/8
f 28/91/3 27/127/3 76/124/3 65/146/3
f 65/146/27 76/124/27 88/14/27 77/147/27
f 77/147/3 88/14/3 90/13/3 25/141/3
f 75/126/27 101/110/27 103/48/27 87/24/27
f 51/129/23 96/107/23 101/110/23 75/126/23
f 39/133/27 99/30/27 61/39/27 93/88/27
f 89/23/23 105/41/23 45/71/23 95/136/23
f 98/31/27 92/72/27 36/53/27 60/38/27
f 42/66/27 94/49/27 96/52/27 51/139/27
